/* XPM */
static char *graphic[] = {
/* width height num_colors chars_per_pixel */
"32 32 434 2", 
/* colors */
"   c None",
".  c #6C5F34",
"X  c #A18E4D",
"o  c #CCB566",
"O  c None",
"+  c #A59D7F",
"@  c #81723D",
"#  c #E4D498",
"$  c #17140B",
"%  c None",
"&  c #5C522D",
"*  c None",
"=  c #2E2816",
"-  c #988648",
";  c None",
":  c None",
">  c #3E371F",
",  c #050402",
"<  c #A89551",
"1  c #D3BC6A",
"2  c #1E1B0F",
"3  c #534A28",
"4  c None",
"5  c None",
"6  c None",
"7  c #7C765C",
"8  c #352F1A",
"9  c #050402",
"0  c #4A4223",
"q  c None",
"w  c #61562E",
"e  c #2C2715",
"r  c None",
"t  c None",
"y  c None",
"u  c None",
"i  c #433B20",
"p  c #060602",
"a  c #C9B46B",
"s  c None",
"d  c #5A4F2B",
"f  c #252012",
"g  c None",
"h  c None",
"j  c None",
"k  c None",
"l  c #141208",
"z  c #2C2716",
"x  c None",
"c  c #EBDEAC",
"v  c None",
"b  c None",
"n  c #786A3A",
"m  c None",
"M  c #231F11",
"N  c #4C4635",
"B  c None",
"V  c #6F6235",
"C  c #3A331C",
"Z  c None",
"A  c #4A4225",
"S  c #18120A",
"D  c #1A170C",
"F  c #231F12",
"G  c #DECD92",
"H  c #2A2615",
"J  c None",
"K  c None",
"L  c #867640",
"P  c #312B17",
"I  c #413A20",
"U  c None",
"Y  c #AFA274",
"T  c None",
"R  c #786A3B",
"E  c #7D6E3B",
"W  c #AD9954",
"Q  c #483F22",
"!  c None",
"~  c #6D6134",
"^  c #5A4F2D",
"/  c #D9D1B1",
"(  c #1A170D",
")  c #CBB771",
"_  c #4F4626",
"`  c #84753F",
"'  c None",
"]  c None",
"[  c #B6A15A",
"{  c #B19D5A",
"}  c #312B18",
"|  c #91814A",
" . c #78725A",
".. c None",
"X. c #413A21",
"o. c #76693A",
"O. c #211E11",
"+. c None",
"@. c #7D6E3C",
"#. c #282313",
"$. c #5D522C",
"%. c #282313",
"&. c #38321C",
"*. c #020201",
"=. c #3F371E",
"-. c #565347",
";. c None",
":. c #4F4627",
">. c #2F2A17",
",. c None",
"<. c None",
"1. c None",
"2. c #0F0E07",
"3. c #524F42",
"4. c #71653B",
"5. c #C2AF6D",
"6. c #282314",
"7. c #928146",
"8. c #332E1D",
"9. c #3D361D",
"0. c #EDE1B3",
"q. c #D4BC6A",
"w. c #4F4628",
"e. c #1F1B0F",
"r. c #544A28",
"t. c #897941",
"y. c #020201",
"u. c None",
"i. c #070602",
"p. c #6B5E33",
"a. c #16130A",
"s. c #93875E",
"d. c #262213",
"f. c #100E05",
"g. c None",
"h. c #1D1A0E",
"j. c None",
"k. c None",
"l. c #020201",
"z. c #342E19",
"x. c #EADBA8",
"c. c #242112",
"v. c #121109",
"b. c #B09C56",
"n. c #4B4224",
"m. c #5B512D",
"M. c #010100",
"N. c #928148",
"B. c #49473F",
"V. c #978548",
"C. c None",
"Z. c #C3AF6A",
"A. c #3D361F",
"S. c #726538",
"D. c #524928",
"F. c #494431",
"G. c #020201",
"H. c #CBBC85",
"J. c #594E2A",
"K. c #14120A",
"L. c None",
"P. c #121109",
"I. c #2B2615",
"U. c #60552E",
"Y. c None",
"T. c None",
"R. c #A79452",
"E. c #423A20",
"W. c None",
"Q. c #524929",
"!. c #221E10",
"~. c #444032",
"^. c None",
"/. c #020201",
"(. c None",
"). c #8E7D44",
"_. c #695D34",
"`. c #39321B",
"'. c #9F8F56",
"]. c None",
"[. c #D0B868",
"{. c #020201",
"}. c #1B170D",
"|. c #67624F",
" X c #504626",
".X c #85753F",
"XX c #1C1B0F",
"oX c #40391F",
"OX c None",
"+X c None",
"@X c #E4D395",
"#X c #010101",
"$X c #120F08",
"%X c #221E11",
"&X c #020201",
"*X c None",
"=X c #574D2A",
"-X c #8C7C43",
";X c #252110",
":X c #868375",
">X c #010101",
",X c #DFCC87",
"<X c #010100",
"1X c #39321C",
"2X c None",
"3X c #7E703E",
"4X c #4E4525",
"5X c #19160C",
"6X c #83743E",
"7X c #504627",
"8X c #302A17",
"9X c #655930",
"0X c #100E07",
"qX c #635E4B",
"wX c #CDBC7D",
"eX c #473E22",
"rX c #130F09",
"tX c #A29054",
"yX c #070603",
"uX c #1A180D",
"iX c #272212",
"pX c #17150B",
"aX c #2E2916",
"sX c #63582F",
"dX c #050502",
"fX c #807651",
"gX c #857541",
"hX c #18150B",
"jX c #453D21",
"kX c #100E08",
"lX c #A08F53",
"zX c None",
"xX c #272213",
"cX c #000000",
"vX c None",
"bX c #5E573E",
"nX c #534927",
"mX c #010100",
"MX c #B6AB82",
"NX c #2E2917",
"BX c #676252",
"VX c #0C0806",
"CX c #453D22",
"ZX c #000000",
"AX c #5C512D",
"SX c #252112",
"DX c #5A502B",
"FX c #8F7F44",
"GX c #3C351D",
"HX c #1D1B0C",
"JX c #3C351D",
"KX c #74705F",
"LX c #050503",
"PX c #716436",
"IX c #010100",
"UX c #060502",
"YX c #2C2816",
"TX c #1E1A0F",
"RX c #887841",
"EX c #433C21",
"WX c #060502",
"QX c #7F703C",
"!X c #4A4123",
"~X c #252113",
"^X c #5A502C",
"/X c #000000",
"(X c #8C7C47",
")X c #968447",
"_X c #C1AB60",
"`X c #000000",
"'X c #9C8B50",
"]X c #A18F50",
"[X c #9F9779",
"{X c #010101",
"}X c #1D1B0E",
"|X c #030201",
" o c #645B3B",
".o c #767364",
"Xo c #433C22",
"oo c #131109",
"Oo c #232012",
"+o c #000000",
"@o c #010101",
"#o c #2A2514",
"$o c #554C2D",
"%o c #5F542D",
"&o c #000000",
"*o c #F6F0D3",
"=o c #41391F",
"-o c #000000",
";o c #514828",
":o c #211D0F",
">o c #000000",
",o c #312C18",
"<o c #E6D69E",
"1o c #F3EAC7",
"2o c #8D7C43",
"3o c #584D2A",
"4o c #484023",
"5o c #AF9B57",
"6o c #4F4525",
"7o c #040404",
"8o c #0B0B08",
"9o c #2A2515",
"0o c #8A7B47",
"qo c #948347",
"wo c #3F381E",
"eo c #0A0905",
"ro c #312F27",
"to c #CAC3A4",
"yo c #D6BE6B",
"uo c #413920",
"io c #474029",
"po c #6D6342",
"ao c #211D10",
"so c #564C29",
"do c #221F0F",
"fo c #CDB666",
"go c #2A2516",
"ho c #000000",
"jo c #F5EDCC",
"ko c #3F381F",
"lo c #000000",
"zo c #4F4728",
"xo c #1F1C0F",
"co c #1A180F",
"vo c #A69353",
"bo c #817343",
"no c #877A4C",
"mo c #312C1A",
"Mo c #B2A165",
"No c #070702",
"Bo c #F3EAC9",
"Vo c #463F23",
"Co c #CDB667",
"Zo c #A28F4E",
"Ao c #242011",
"So c #82733E",
"Do c #4D4425",
"Fo c #070702",
"Go c #060503",
"Ho c #2E2B1E",
"Jo c #878579",
"Ko c #1D170D",
"Lo c #998749",
"Po c #645830",
"Io c #3F3820",
"Uo c #0F0D07",
"Yo c #1F1C10",
"To c #A99F7D",
"Ro c #040402",
"Eo c #BBA65D",
"Wo c #262112",
"Qo c #AD9D66",
"!o c #36301B",
"~o c #6B5F34",
"^o c #62572F",
"/o c #2D2816",
"(o c #16140C",
")o c #443C21",
"_o c #443C21",
"`o c #796B3A",
"'o c #000000",
"]o c #594F2A",
"[o c #242011",
"{o c #060503",
"}o c #E5DDB9",
"|o c #4B4325",
" O c #010000",
".O c #2B2715",
"XO c #1D190E",
"oO c #000000",
"OO c #030303",
"+O c #1D190E",
"@O c #837649",
"#O c #2D2817",
"$O c #0D0C07",
"%O c #443C22",
"&O c #A99654",
"*O c #D5C076",
"=O c #242012",
"-O c #1E1B0C",
";O c #39331B",
":O c #C6B168",
">O c #1B180D",
",O c #4B4326",
"<O c #504726",
"1O c #A79351",
"2O c #2B2716",
"3O c #B7A25A",
"4O c #877741",
"5O c #675B31",
"6O c #322C18",
"7O c #F9F3D7",
"8O c None",
"9O c #0B0905",
"0O c #0B0705",
"qO c #221F11",
"wO c #7E6F3C",
"eO c #DAC477",
"rO c #B9A55E",
"tO c #39331C",
"yO c #958347",
"uO c #3B341E",
"iO c #2C2512",
"pO c #D1BC72",
"aO c #574C29",
"sO c #9C8A4B",
"dO c #473F22",
"fO c #090804",
"gO c #292414",
"hO c #5E532D",
"jO c #272113",
"kO c #756738",
"lO c #100F08",
"zO c #201C0F",
"xO c #504728",
"cO c #554B28",
"vO c #302B18",
"bO c #211E0E",
"nO c #8C7B43",
"mO c #6C5F33",
"MO c #ECDFB0",
"NO c #272313",
"BO c #000000",
"VO c #83733E",
"CO c #262319",
"ZO c #6E6237",
"AO c #736637",
"SO c #1E1B0E",
"DO c #D5BD6B",
"FO c #A59252",
"GO c #554B29",
"HO c #352F19",
/* pixels */
"                                                                ",
"                                                                ",
"                                                                ",
"                                                                ",
"                                                                ",
"                % 6 b ! 1.] T T T U m k j y 5                   ",
"          : v C.ZX8oXXdoAoiOjObOKoHX}XuXl UX+og.b O             ",
"      : g.M.VX;XN :XfXZO7XJX8XI.NOz.0 aO^onXGX-Oi.+XB O         ",
"    : W.0OoX. R ioro~. onoboI %X>O~X6.OoTX>O#o_o)oF No].h       ",
"  % T.f.AXV iXK.^ Qo/ to+ qX.o7 $ovO> |o,OEX,o2 K.= ]o(o`Xq     ",
"  6 hojX@ zO~XCXZO'Xpo@O4.Y Bo7OG 3X8X:.z %OQ.xOX.( d w , k.    ",
"  5 >X$.V aow.xO} 1Xo.3O[ [.eO@X0.Z.N.b.p.aXtOxOQ.uO= SoXOcX%   ",
"  * OO5OU.e.zoVo/owOsOX 1OrOCoyo# <o*OEoX wOxoXo;oA e.QX!XmXK   ",
"  5 #X4XSozONXC 4oWoHO& | wX) 5opO,Xx.5._.4XDogO8 A.zOVOhO{.^.  ",
"  u WXooV cO$O>O&.&.=OH 8 R.foo q.DOH. .mouoD.&.Io}.d yOwoBOY.  ",
"  vXS 2.!.E r.5X=O9o2O>.[ogXFO&O&Ovo0oHo3.bX'.(XCXkonOmOoo&X*X  ",
"  ,.uXM Uo;O6X`o=.+OYX#O%Xe.h.M NONOSX!o|.-.F.BXs.]X=X$XkX{o(.  ",
"  8OhXSXYoeoD eX@.kOr.6Oao( 5Xh.f %.,o`._oS.lXToKX8.I.} qOLXj.  ",
"  t rXd.SXe hO:o( P woi  X6o4X<Or.GOJ.DX3 dOI.coB.[X{ m.c.Go;.  ",
"  x FoO.d.E.yOso9XjXxoSO+Oh.oo0X$ pX( a.D z.~otX}o1o:Om.Oop b   ",
"  : zX9OYo_ V.hOFXV.$..X-X-X^o5O4ORXt.AO4O7.W DOMOjoa ^XlO O4   ",
"    g &ofO9.2o$.FX- $.).LoLoPXn LoLoLo` )XLo< 1 c *oMo.O<XJ     ",
"      ' loyX#.`.@.7.=X2oLoLoV ~ LoLoLoL qoLoZo_XMXJoCO*...      ",
"        s g./Xy.P.P xX4XJ.%oQ n.PosXsXGO3o_ =ogov.7o2XU O       ",
"            ; B L.>ooOIX@oRodX9 |X/.G.l.{X'o-oOX1.r O           ",
"                  5 k B U ] <.u.u.u.+.J Z j 4                   ",
"                                                                ",
"                                                                ",
"                                                                ",
"                                                                ",
"                                                                ",
"                                                                "
};
