/* XPM */
static char *graphic[] = {
/* width height num_colors chars_per_pixel */
"16 16 150 2", 
/* colors */
"   c None",
".  c #AC9956",
"X  c #4C4324",
"o  c None",
"O  c None",
"+  c #7E744F",
"@  c None",
"#  c #3E371F",
"$  c None",
"%  c None",
"&  c None",
"*  c None",
"=  c #655A33",
"-  c #605633",
";  c #2E2817",
":  c #4C4325",
">  c #827547",
",  c None",
"<  c #797050",
"1  c None",
"2  c #312916",
"3  c None",
"4  c #4F4932",
"5  c None",
"6  c None",
"7  c None",
"8  c None",
"9  c #2C2716",
"0  c None",
"q  c None",
"w  c #3C361F",
"e  c #433B21",
"r  c None",
"t  c None",
"y  c #1D1A0B",
"u  c #75653B",
"i  c None",
"p  c None",
"a  c #867640",
"s  c #312B17",
"d  c None",
"f  c #39341C",
"g  c None",
"h  c None",
"j  c #38321B",
"k  c #665D3F",
"l  c None",
"z  c #222219",
"x  c #AC995A",
"c  c #312B18",
"v  c None",
"b  c #76693A",
"n  c None",
"m  c #564B29",
"M  c None",
"N  c #353019",
"B  c #897941",
"V  c #B7A975",
"C  c None",
"Z  c #726537",
"A  c #0F0D07",
"S  c None",
"D  c #4B4224",
"F  c #80713D",
"G  c #0F0D06",
"H  c #3B351D",
"J  c #3D361F",
"K  c #0D0C05",
"L  c #322D18",
"P  c #352E18",
"I  c None",
"U  c #211D10",
"Y  c #574D29",
"T  c #E7DCAF",
"R  c #6E6134",
"E  c #39321B",
"W  c #19140C",
"Q  c #242012",
"!  c #18150C",
"~  c #4E4525",
"^  c #282414",
"/  c #302A17",
"(  c #3B3520",
")  c #0D0A06",
"_  c #1A180D",
"`  c #37311B",
"'  c #161609",
"]  c #5B5641",
"[  c #453D21",
"{  c #070703",
"}  c #736537",
"|  c #49412A",
" . c #3C351D",
".. c #534928",
"X. c #887841",
"o. c #3F3A1F",
"O. c #685C31",
"+. c None",
"@. c #322C15",
"#. c #3D3C30",
"$. c #685C32",
"%. c #2A2514",
"&. c #2F2715",
"*. c #3A341D",
"=. c #766838",
"-. c None",
";. c #3F361F",
":. c #110C07",
">. c #38311B",
",. c #84743F",
"<. c #908251",
"1. c #655B38",
"2. c None",
"3. c #65604C",
"4. c #595237",
"5. c #DDD09D",
"6. c #796E48",
"7. c None",
"8. c #726436",
"9. c #8F8768",
"0. c #443C21",
"q. c #C6B475",
"w. c #594F2A",
"e. c #706335",
"r. c #272514",
"t. c #BDA962",
"y. c #443C22",
"u. c #242012",
"i. c #706336",
"p. c #504726",
"a. c #2B2716",
"s. c #726948",
"d. c #B29E5A",
"f. c #322C18",
"g. c #1C1C0F",
"h. c #7F7553",
"j. c #39331C",
"k. c #DCCA89",
"l. c #A9A182",
"z. c #282311",
"x. c #625732",
"c. c #37301A",
"v. c None",
"b. c #473F23",
"n. c #2A2612",
"m. c #AA9960",
"M. c #736637",
"N. c None",
"B. c #CBB56B",
"V. c #4F4623",
/* pixels */
"                                ",
"                                ",
"      O , i S N.p t q *         ",
"  % g Q #.| ;.&.r.P @.U 7.5     ",
"@ v.o.e k 9.h.] ( ` ` c n.^ h   ",
"3 N : # x.<.m.5.V b : b.*.p.! % ",
"1 f D j.0.Z x B.k.q.i.H J ..2 l ",
"C ' ~ f.9 a.= . d.+ 4 - y.$.y M ",
"2.g.u.p.X c.%./ ` w 4.< s.# :.n ",
"8 _ L m [ >.j s E  .0.1.l.> W d ",
"% { ; } ,.8.X.O.a F B t.T 6.K & ",
"  6 -.z.V.Y M.w.=.e.R u 3.z 0   ",
"    O 7 I v A ) G A r +.i $     ",
"              o O               ",
"                                ",
"                                "
};
